# Blender v2.74 (sub 0) OBJ File: ''
# www.blender.org
mtllib chair.mtl
o Cube_Cube.001
v -0.500000 0.825902 -0.397017
v -0.500000 1.765902 -0.397017
v -0.500000 0.825902 -0.497017
v -0.500000 1.765902 -0.497017
v 0.500000 0.825902 -0.397017
v 0.500000 1.765902 -0.397017
v 0.500000 0.825902 -0.497017
v 0.500000 1.765902 -0.497017
v 0.350000 -0.000948 -0.350000
v 0.350000 0.799052 -0.350000
v 0.350000 -0.000948 -0.450000
v 0.350000 0.799052 -0.450000
v 0.450000 -0.000948 -0.350000
v 0.450000 0.799052 -0.350000
v 0.450000 -0.000948 -0.450000
v 0.450000 0.799052 -0.450000
v -0.500000 0.739052 0.500000
v -0.500000 0.859052 0.500000
v -0.500000 0.739052 -0.500000
v -0.500000 0.859052 -0.500000
v 0.500000 0.739052 0.500000
v 0.500000 0.859052 0.500000
v 0.500000 0.739052 -0.500000
v 0.500000 0.859052 -0.500000
v -0.450000 -0.000948 0.450000
v -0.450000 0.799052 0.450000
v -0.450000 -0.000948 0.350000
v -0.450000 0.799052 0.350000
v -0.350000 -0.000948 0.450000
v -0.350000 0.799052 0.450000
v -0.350000 -0.000948 0.350000
v -0.350000 0.799052 0.350000
v 0.350000 -0.000948 0.450000
v 0.350000 0.799052 0.450000
v 0.350000 -0.000948 0.350000
v 0.350000 0.799052 0.350000
v 0.450000 -0.000948 0.450000
v 0.450000 0.799052 0.450000
v 0.450000 -0.000948 0.350000
v 0.450000 0.799052 0.350000
v -0.450000 -0.000948 -0.350000
v -0.450000 0.799052 -0.350000
v -0.450000 -0.000948 -0.450000
v -0.450000 0.799052 -0.450000
v -0.350000 -0.000948 -0.350000
v -0.350000 0.799052 -0.350000
v -0.350000 -0.000948 -0.450000
v -0.350000 0.799052 -0.450000
vt 1.000000 0.000000
vt 1.000000 1.000000
vt 0.000000 1.000000
vt 0.000000 0.000000
vn -1.000000 0.000000 0.000000
vn 0.000000 0.000000 -1.000000
vn 1.000000 0.000000 0.000000
vn 0.000000 0.000000 1.000000
vn 0.000000 -1.000000 0.000000
vn 0.000000 1.000000 0.000000
usemtl Material.001
s off
f 4/1/1 3/2/1 1/3/1
f 8/1/2 7/2/2 3/3/2
f 6/1/3 5/2/3 7/3/3
f 2/1/4 1/2/4 5/3/4
f 3/1/5 7/2/5 5/3/5
f 8/1/6 4/2/6 2/3/6
f 12/1/1 11/2/1 9/3/1
f 16/1/2 15/2/2 11/3/2
f 14/1/3 13/2/3 15/3/3
f 10/1/4 9/2/4 13/3/4
f 11/1/5 15/2/5 13/3/5
f 16/1/6 12/2/6 10/3/6
f 20/1/1 19/2/1 17/3/1
f 24/1/2 23/2/2 19/3/2
f 22/1/3 21/2/3 23/3/3
f 18/1/4 17/2/4 21/3/4
f 19/1/5 23/2/5 21/3/5
f 24/1/6 20/2/6 18/3/6
f 28/1/1 27/2/1 25/3/1
f 32/1/2 31/2/2 27/3/2
f 30/1/3 29/2/3 31/3/3
f 26/1/4 25/2/4 29/3/4
f 27/1/5 31/2/5 29/3/5
f 32/1/6 28/2/6 26/3/6
f 36/1/1 35/2/1 33/3/1
f 40/1/2 39/2/2 35/3/2
f 38/1/3 37/2/3 39/3/3
f 34/1/4 33/2/4 37/3/4
f 35/1/5 39/2/5 37/3/5
f 40/1/6 36/2/6 34/3/6
f 44/1/1 43/2/1 41/3/1
f 48/1/2 47/2/2 43/3/2
f 46/1/3 45/2/3 47/3/3
f 42/1/4 41/2/4 45/3/4
f 43/1/5 47/2/5 45/3/5
f 48/1/6 44/2/6 42/3/6
f 2/4/1 4/1/1 1/3/1
f 4/4/2 8/1/2 3/3/2
f 8/4/3 6/1/3 7/3/3
f 6/4/4 2/1/4 5/3/4
f 1/4/5 3/1/5 5/3/5
f 6/4/6 8/1/6 2/3/6
f 10/4/1 12/1/1 9/3/1
f 12/4/2 16/1/2 11/3/2
f 16/4/3 14/1/3 15/3/3
f 14/4/4 10/1/4 13/3/4
f 9/4/5 11/1/5 13/3/5
f 14/4/6 16/1/6 10/3/6
f 18/4/1 20/1/1 17/3/1
f 20/4/2 24/1/2 19/3/2
f 24/4/3 22/1/3 23/3/3
f 22/4/4 18/1/4 21/3/4
f 17/4/5 19/1/5 21/3/5
f 22/4/6 24/1/6 18/3/6
f 26/4/1 28/1/1 25/3/1
f 28/4/2 32/1/2 27/3/2
f 32/4/3 30/1/3 31/3/3
f 30/4/4 26/1/4 29/3/4
f 25/4/5 27/1/5 29/3/5
f 30/4/6 32/1/6 26/3/6
f 34/4/1 36/1/1 33/3/1
f 36/4/2 40/1/2 35/3/2
f 40/4/3 38/1/3 39/3/3
f 38/4/4 34/1/4 37/3/4
f 33/4/5 35/1/5 37/3/5
f 38/4/6 40/1/6 34/3/6
f 42/4/1 44/1/1 41/3/1
f 44/4/2 48/1/2 43/3/2
f 48/4/3 46/1/3 47/3/3
f 46/4/4 42/1/4 45/3/4
f 41/4/5 43/1/5 45/3/5
f 46/4/6 48/1/6 42/3/6
